<svg width="225" height="51" viewBox="0 0 225 51" fill="none" xmlns="http://www.w3.org/2000/svg">
<g clip-path="url(#clip0)">
<circle cx="25.6451" cy="26.2782" r="19.9461" fill="url(#paint0_linear)" fill-opacity="0.1"/>
<path fill-rule="evenodd" clip-rule="evenodd" d="M13.8986 37.0795C13.8723 37.0743 13.8586 37.0715 13.8586 37.0715C13.8586 37.0715 12.6718 31.552 14.8279 29.396C15.2917 28.9321 15.8962 28.6809 16.559 28.5948L17.5043 29.54C17.4643 29.5649 17.4215 29.5841 17.3788 29.6034C17.308 29.6352 17.2376 29.6669 17.1812 29.7234C15.6622 31.2424 16.9148 34.0152 16.9148 34.0152C16.9148 34.0152 16.9264 34.0204 16.9484 34.0298L13.8986 37.0795ZM20.5889 30.3893L17.2117 27.0121L18.6045 23.6502L10.3025 24.5737C10.3025 24.5737 12.3341 18.4772 14.3673 16.4441C15.9783 14.833 20.2036 15.0548 22.2938 15.2761C22.3303 15.2349 22.3666 15.1933 22.4029 15.1518C22.5322 15.004 22.6617 14.8559 22.8003 14.7173C32.8597 4.65791 44.0368 6.89333 44.0368 6.89333C44.0368 6.89333 44.0395 6.907 44.0443 6.93382L36.2367 14.7415C36.2288 14.7334 36.2208 14.7253 36.2128 14.7173C34.9777 13.4822 32.977 13.4822 31.742 14.7173C30.5069 15.9524 30.5069 17.9531 31.742 19.1881C31.75 19.1962 31.758 19.2041 31.7661 19.212L20.5889 30.3893Z" fill="white"/>
<path fill-rule="evenodd" clip-rule="evenodd" d="M13.8986 37.0795C13.9038 37.1059 13.9067 37.1196 13.9067 37.1196C13.9067 37.1196 19.4261 38.3064 21.5822 36.1503C22.046 35.6865 22.2973 35.082 22.3834 34.4192L21.4381 33.4739C21.4133 33.5139 21.394 33.5567 21.3748 33.5994C21.3429 33.6701 21.3112 33.7405 21.2547 33.797C19.7358 35.316 16.9629 34.0633 16.9629 34.0633C16.9629 34.0633 16.9577 34.0518 16.9484 34.0298L13.8986 37.0795ZM20.5889 30.3893L23.9661 33.7664L27.3279 32.3737L26.4045 40.6757C26.4045 40.6757 32.501 38.644 34.5341 36.6109C36.1451 34.9998 35.9233 30.7746 35.702 28.6844C35.7433 28.6479 35.7848 28.6116 35.8263 28.5752C35.9742 28.446 36.1222 28.3165 36.2609 28.1779C46.3202 18.1185 44.0848 6.94142 44.0848 6.94142C44.0848 6.94142 44.0712 6.93868 44.0443 6.93384L36.2367 14.7415C36.2448 14.7494 36.2528 14.7574 36.2609 14.7654C37.4959 16.0005 37.4959 18.0011 36.2609 19.2362C35.0258 20.4713 33.0251 20.4713 31.79 19.2362C31.782 19.2282 31.774 19.2201 31.7661 19.2121L20.5889 30.3893Z" fill="#E1E1E1"/>
</g>
<path d="M70.3069 17.7546C70.5087 18.8944 70.7666 20.1139 71.0804 21.4133C71.4168 22.6898 71.7755 24.0006 72.1566 25.3455C72.5602 26.6677 72.975 27.9784 73.401 29.2778C73.8494 30.5771 74.2978 31.7967 74.7462 32.9365C75.1274 32.0702 75.531 31.0216 75.957 29.7907C76.383 28.5369 76.8089 27.2262 77.2349 25.8584C77.6609 24.4679 78.0533 23.0774 78.412 21.6868C78.7932 20.2735 79.1071 18.9628 79.3537 17.7546H81.5061C80.6989 21.2195 79.8133 24.3881 78.8492 27.2603C77.9076 30.1326 76.865 32.8567 75.7215 35.4326H73.67C73.3337 34.6347 72.975 33.7457 72.5938 32.7655C72.2351 31.7625 71.854 30.7025 71.4504 29.5855C71.0692 28.4457 70.6881 27.2603 70.3069 26.0294C69.9482 24.7756 69.6007 23.4991 69.2644 22.1997C68.9281 23.4991 68.5693 24.7756 68.1882 26.0294C67.8294 27.2603 67.4483 28.4457 67.0447 29.5855C66.6636 30.7025 66.2824 31.7625 65.9013 32.7655C65.5425 33.7457 65.195 34.6347 64.8587 35.4326H62.7736C61.6301 32.8567 60.5763 30.1326 59.6122 27.2603C58.6706 24.3881 57.7962 21.2195 56.989 17.7546H59.3096C59.5562 18.9628 59.8589 20.2735 60.2176 21.6868C60.5988 23.0774 61.0023 24.4679 61.4283 25.8584C61.8543 27.2262 62.2803 28.5255 62.7063 29.7565C63.1547 30.9874 63.5695 32.036 63.9507 32.9023C64.3766 31.7625 64.8026 30.5429 65.2286 29.2436C65.677 27.9442 66.0918 26.6335 66.473 25.3113C66.8541 23.9892 67.2129 22.6898 67.5492 21.4133C67.8855 20.1139 68.177 18.8944 68.4236 17.7546H70.3069Z" fill="white"/>
<path d="M84.1425 26.5765C84.1425 25.0264 84.3555 23.6814 84.7814 22.5417C85.2299 21.3791 85.8016 20.4103 86.4966 19.6352C87.2141 18.8602 88.0212 18.2903 88.9181 17.9256C89.8373 17.538 90.779 17.3443 91.7431 17.3443C93.8731 17.3443 95.5658 18.0509 96.8214 19.4643C98.0994 20.8776 98.7384 23.0546 98.7384 25.9952C98.7384 26.1776 98.7271 26.3599 98.7047 26.5423C98.7047 26.7247 98.6935 26.8956 98.6711 27.0552H86.463C86.5303 29.2208 87.0571 30.8848 88.0437 32.0474C89.0302 33.21 90.5996 33.7913 92.752 33.7913C93.9403 33.7913 94.882 33.6773 95.577 33.4494C96.2721 33.2214 96.7765 33.0276 97.0904 32.8681L97.494 34.7829C97.1801 34.9653 96.586 35.1818 95.7116 35.4326C94.8596 35.6833 93.8506 35.8087 92.6848 35.8087C91.1601 35.8087 89.8597 35.5807 88.7835 35.1248C87.7074 34.6689 86.8217 34.0306 86.1267 33.21C85.4316 32.3894 84.9272 31.4205 84.6133 30.3036C84.2994 29.1638 84.1425 27.9214 84.1425 26.5765ZM96.4851 25.1746C96.4402 23.3281 96.0142 21.892 95.2071 20.8662C94.3999 19.8404 93.2565 19.3275 91.7767 19.3275C90.992 19.3275 90.2857 19.4871 89.658 19.8062C89.0526 20.1253 88.5145 20.5584 88.0437 21.1055C87.5952 21.6298 87.2365 22.2453 86.9675 22.952C86.7208 23.6586 86.5751 24.3995 86.5303 25.1746H96.4851Z" fill="white"/>
<path d="M106.502 26.4397C106.502 28.2634 106.928 29.6995 107.78 30.7481C108.632 31.7739 109.809 32.2868 111.311 32.2868C111.962 32.2868 112.511 32.264 112.959 32.2184C113.43 32.15 113.811 32.0816 114.103 32.0132V21.7552C113.744 21.5045 113.262 21.2765 112.657 21.0713C112.074 20.8434 111.446 20.7294 110.773 20.7294C109.294 20.7294 108.206 21.2423 107.511 22.2681C106.838 23.2939 106.502 24.6844 106.502 26.4397ZM118.172 34.8855C117.365 35.1362 116.345 35.3642 115.112 35.5693C113.901 35.7745 112.623 35.8771 111.278 35.8771C109.888 35.8771 108.643 35.6605 107.545 35.2274C106.446 34.7943 105.504 34.1788 104.72 33.381C103.957 32.5603 103.363 31.5801 102.937 30.4403C102.534 29.2778 102.332 27.9784 102.332 26.5423C102.332 25.129 102.5 23.8524 102.836 22.7126C103.195 21.5501 103.711 20.5584 104.383 19.7378C105.056 18.9172 105.874 18.2903 106.838 17.8572C107.803 17.4013 108.912 17.1733 110.168 17.1733C111.02 17.1733 111.771 17.2759 112.421 17.481C113.071 17.6862 113.632 17.9142 114.103 18.1649V9.58237L118.172 8.89851V34.8855Z" fill="white"/>
<path d="M122.366 26.5765C122.366 25.0036 122.59 23.6245 123.039 22.4391C123.51 21.2537 124.126 20.2735 124.888 19.4985C125.651 18.7006 126.525 18.1079 127.512 17.7204C128.498 17.3101 129.507 17.1049 130.538 17.1049C132.96 17.1049 134.843 17.8686 136.188 19.3959C137.556 20.9232 138.24 23.2027 138.24 26.2345C138.24 26.4625 138.229 26.7247 138.206 27.021C138.206 27.2945 138.195 27.5453 138.173 27.7733H126.57C126.682 29.2094 127.175 30.3264 128.05 31.1242C128.947 31.8993 130.236 32.2868 131.917 32.2868C132.904 32.2868 133.801 32.1956 134.608 32.0132C135.437 31.8309 136.088 31.6371 136.558 31.4319L137.096 34.8171C136.872 34.9311 136.558 35.0564 136.155 35.1932C135.774 35.3072 135.325 35.4098 134.81 35.501C134.316 35.6149 133.778 35.7061 133.195 35.7745C132.612 35.8429 132.018 35.8771 131.413 35.8771C129.866 35.8771 128.521 35.6491 127.377 35.1932C126.234 34.7145 125.292 34.0648 124.552 33.2442C123.812 32.4008 123.263 31.4205 122.904 30.3036C122.545 29.1638 122.366 27.9214 122.366 26.5765ZM134.171 24.73C134.171 24.1601 134.092 23.6245 133.935 23.123C133.778 22.5987 133.543 22.1541 133.229 21.7894C132.937 21.4019 132.567 21.1055 132.119 20.9004C131.693 20.6724 131.177 20.5584 130.572 20.5584C129.944 20.5584 129.395 20.6838 128.924 20.9346C128.453 21.1625 128.05 21.4703 127.713 21.8578C127.399 22.2453 127.153 22.6898 126.974 23.1913C126.794 23.6928 126.671 24.2057 126.604 24.73H134.171Z" fill="white"/>
<path d="M147.061 35.4326C145.94 33.0846 144.785 30.3947 143.597 27.3629C142.431 24.3083 141.366 21.0372 140.402 17.5494H144.74C144.987 18.5524 145.267 19.6352 145.581 20.7978C145.918 21.9376 146.265 23.0888 146.624 24.2513C147.005 25.3911 147.386 26.5081 147.767 27.6023C148.171 28.6737 148.541 29.6425 148.877 30.5087C149.213 29.6425 149.572 28.6737 149.953 27.6023C150.334 26.5081 150.704 25.3911 151.063 24.2513C151.444 23.0888 151.803 21.9376 152.139 20.7978C152.476 19.6352 152.767 18.5524 153.014 17.5494H157.218C156.254 21.0372 155.177 24.3083 153.989 27.3629C152.823 30.3947 151.68 33.0846 150.559 35.4326H147.061Z" fill="white"/>
<path d="M158.887 26.5765C158.887 25.0036 159.112 23.6245 159.56 22.4391C160.031 21.2537 160.647 20.2735 161.41 19.4985C162.172 18.7006 163.046 18.1079 164.033 17.7204C165.019 17.3101 166.028 17.1049 167.06 17.1049C169.481 17.1049 171.364 17.8686 172.71 19.3959C174.077 20.9232 174.761 23.2027 174.761 26.2345C174.761 26.4625 174.75 26.7247 174.728 27.021C174.728 27.2945 174.716 27.5453 174.694 27.7733H163.091C163.203 29.2094 163.697 30.3264 164.571 31.1242C165.468 31.8993 166.757 32.2868 168.439 32.2868C169.425 32.2868 170.322 32.1956 171.129 32.0132C171.959 31.8309 172.609 31.6371 173.08 31.4319L173.618 34.8171C173.394 34.9311 173.08 35.0564 172.676 35.1932C172.295 35.3072 171.847 35.4098 171.331 35.501C170.838 35.6149 170.299 35.7061 169.717 35.7745C169.134 35.8429 168.539 35.8771 167.934 35.8771C166.387 35.8771 165.042 35.6491 163.898 35.1932C162.755 34.7145 161.813 34.0648 161.073 33.2442C160.333 32.4008 159.784 31.4205 159.425 30.3036C159.067 29.1638 158.887 27.9214 158.887 26.5765ZM170.692 24.73C170.692 24.1601 170.613 23.6245 170.456 23.123C170.299 22.5987 170.064 22.1541 169.75 21.7894C169.459 21.4019 169.089 21.1055 168.64 20.9004C168.214 20.6724 167.699 20.5584 167.093 20.5584C166.466 20.5584 165.916 20.6838 165.445 20.9346C164.975 21.1625 164.571 21.4703 164.235 21.8578C163.921 22.2453 163.674 22.6898 163.495 23.1913C163.315 23.6928 163.192 24.2057 163.125 24.73H170.692Z" fill="white"/>
<path d="M185.197 35.7745C183.986 35.7517 182.977 35.6149 182.17 35.3642C181.385 35.1134 180.757 34.7601 180.286 34.3042C179.816 33.8255 179.479 33.2442 179.277 32.5603C179.098 31.8537 179.008 31.0558 179.008 30.1668V9.58237L183.078 8.89851V29.3803C183.078 29.8818 183.111 30.3036 183.179 30.6455C183.268 30.9874 183.414 31.2838 183.616 31.5345C183.818 31.7625 184.087 31.9448 184.423 32.0816C184.782 32.1956 185.23 32.2868 185.768 32.3552L185.197 35.7745Z" fill="white"/>
<path d="M204.967 26.4739C204.967 27.8872 204.766 29.1752 204.362 30.3378C203.959 31.5003 203.387 32.4919 202.647 33.3126C201.907 34.1332 201.01 34.7715 199.956 35.2274C198.925 35.6833 197.782 35.9113 196.526 35.9113C195.27 35.9113 194.127 35.6833 193.096 35.2274C192.064 34.7715 191.179 34.1332 190.439 33.3126C189.699 32.4919 189.116 31.5003 188.69 30.3378C188.286 29.1752 188.085 27.8872 188.085 26.4739C188.085 25.0606 188.286 23.784 188.69 22.6442C189.116 21.4817 189.699 20.4901 190.439 19.6694C191.201 18.8488 192.098 18.2219 193.129 17.7888C194.161 17.3329 195.293 17.1049 196.526 17.1049C197.759 17.1049 198.891 17.3329 199.923 17.7888C200.977 18.2219 201.873 18.8488 202.613 19.6694C203.353 20.4901 203.925 21.4817 204.328 22.6442C204.754 23.784 204.967 25.0606 204.967 26.4739ZM200.797 26.4739C200.797 24.6958 200.416 23.2939 199.654 22.2681C198.914 21.2195 197.871 20.6952 196.526 20.6952C195.181 20.6952 194.127 21.2195 193.365 22.2681C192.625 23.2939 192.255 24.6958 192.255 26.4739C192.255 28.2748 192.625 29.6995 193.365 30.7481C194.127 31.7967 195.181 32.321 196.526 32.321C197.871 32.321 198.914 31.7967 199.654 30.7481C200.416 29.6995 200.797 28.2748 200.797 26.4739Z" fill="white"/>
<path d="M220.83 26.5765C220.83 24.73 220.415 23.2939 219.585 22.2681C218.778 21.2423 217.467 20.7294 215.651 20.7294C215.269 20.7294 214.866 20.7522 214.44 20.7978C214.036 20.8206 213.633 20.889 213.229 21.003V31.2268C213.588 31.4775 214.059 31.7169 214.642 31.9448C215.247 32.15 215.886 32.2526 216.559 32.2526C218.038 32.2526 219.115 31.7397 219.787 30.7139C220.482 29.6881 220.83 28.3089 220.83 26.5765ZM225 26.5081C225 27.8758 224.821 29.1296 224.462 30.2694C224.126 31.4091 223.632 32.3894 222.982 33.21C222.332 34.0306 221.514 34.6689 220.527 35.1248C219.563 35.5807 218.464 35.8087 217.231 35.8087C216.402 35.8087 215.639 35.7061 214.944 35.501C214.249 35.2958 213.678 35.0678 213.229 34.8171V41.7583H209.16V18.1307C209.989 17.9028 211.01 17.6862 212.22 17.481C213.431 17.2759 214.709 17.1733 216.054 17.1733C217.444 17.1733 218.689 17.3899 219.787 17.823C220.886 18.2561 221.816 18.883 222.579 19.7036C223.363 20.5015 223.957 21.4817 224.361 22.6442C224.787 23.784 225 25.072 225 26.5081Z" fill="white"/>
<defs>
<linearGradient id="paint0_linear" x1="19.313" y1="44.0081" x2="28.8112" y2="13.614" gradientUnits="userSpaceOnUse">
<stop offset="0.411458" stop-color="white"/>
<stop offset="1" stop-color="white"/>
</linearGradient>
<clipPath id="clip0">
<rect width="50.6569" height="50.6569" fill="white"/>
</clipPath>
</defs>
</svg>